<?xml version="1.0" encoding="utf-8"?>
<!-- Generator: Adobe Illustrator 24.2.3, SVG Export Plug-In . SVG Version: 6.00 Build 0)  -->
<svg version="1.1" id="Layer_1" xmlns="http://www.w3.org/2000/svg" xmlns:xlink="http://www.w3.org/1999/xlink" x="0px" y="0px"
	 viewBox="0 0 1080 1080" style="enable-background:new 0 0 1080 1080;" xml:space="preserve">
<style type="text/css">
	.st0{fill:url(#SVGID_1_);}
	.st1{fill:#F2F2F2;}
</style>
<radialGradient id="SVGID_1_" cx="540" cy="540" r="524.0755" gradientUnits="userSpaceOnUse">
	<stop  offset="0" style="stop-color:#163875"/>
	<stop  offset="1" style="stop-color:#030A1E"/>
</radialGradient>
<circle class="st0" cx="540" cy="540" r="524.1"/>
<path class="st1" d="M974.2,540.3c-0.1,240.1-194.4,436-432.1,435.8c-242.2-0.2-436.4-194.6-436.3-436.6
	c0.1-240.9,194.6-435.8,434.8-435.7C780.4,104,974.3,299.1,974.2,540.3z M416.6,909.7c155.3,61,392.2-0.2,484.3-219
	c86.4-205.3-18.1-443.9-227.2-519.1c-214.5-77.2-446.1,41-509.6,260.9c-62.5,216.4,74.9,409.7,211.3,459.7l92.7-131.8
	c-55.5-8.5-59.7-18.7-29-63.1c27.4-39.6,54.9-79.1,82.3-118.6L349.3,338.4l-4.6,1.8V365c0,123,0,246.1,0,369.1
	c0,15.4-1.4,31-21.7,31.2c-20.1,0.3-22.5-14.6-22.5-30.4c0-150.7-0.3-301.4,0.8-452.1c0.1-10.6,8.2-25.3,17.1-30.7
	c14-8.5,25,2.7,33.8,15.1c37.7,53.3,76,106.2,114.1,159.3c26.7,37.2,53.4,74.4,81.9,114l174.7-251.3c-73.1,0-140-0.1-206.9,0.1
	c-15.8,0-31.2-1.3-31.1-21.4c0.1-19.9,15.4-21.5,31.2-21.4c75.4,0.2,150.7,0,226.1,0.2c14.3,0,33-3.8,36.9,14.4
	c2.4,11.3-2.6,26.9-9.5,37C683.9,422.7,597.3,546.7,510.8,671c-9.1,13.1-18.2,26.2-27.4,39.2l6,6.2c7.6-6.2,17.1-11.2,22.6-18.9
	c83.6-117.8,166.9-235.8,249.8-354c8.5-12.1,16.7-25.1,34.9-19.3c17.5,5.6,18.8,20,18.5,35.4c-2.4,125.3-4.6,250.6-6.8,375.9
	c-0.2,15-1.9,29.5-20.4,30c-19.5,0.5-22.9-13.5-22.5-30.1c1.1-51.5,1.8-103,2.2-154.5c0.4-55,0.1-109.9,0.1-169.8L554.8,713.5h30
	c35.4,0,70.7-0.2,106.1,0.1c14,0.1,24.2,6.3,24.4,21.7c0.2,15.5-10.3,21.1-24,22.2c-5.4,0.4-10.8,0.2-16.1,0.2
	c-44.6,0-89.2-0.3-133.8,0.3c-7.6,0.1-18.5,2.1-22.3,7.2C484.3,812.7,450.8,861.1,416.6,909.7z"/>
</svg>
